<svg xmlns="http://www.w3.org/2000/svg" xmlns:xlink="http://www.w3.org/1999/xlink" id="body_1" preserveAspectRatio="xMinYMin meet" viewBox="0 0 793 1121"><defs><clipPath id="1"><path clip-rule="evenodd" d="M0 841L0 -0.9000244L0 -0.9000244L595.3 -0.9000244L595.3 -0.9000244L595.3 841L595.3 841L0 841z" /></clipPath><clipPath id="2"><path clip-rule="evenodd" d="M0 -0.9000244L595.3 -0.9000244L595.3 -0.9000244L595.3 841L595.3 841L0 841z" /></clipPath><clipPath id="3"><path clip-rule="evenodd" d="M45 49.09998L408.55 49.09998L408.55 49.09998L408.55 95.89996L408.55 95.89996L45 95.89996z" /></clipPath><clipPath id="4"><path clip-rule="evenodd" d="M45 95.90002L311.8 95.90002L311.8 95.90002L311.8 208.2L311.8 208.2L45 208.2z" /></clipPath><clipPath id="5"><path clip-rule="evenodd" d="M311.75 95.90002L408.55 95.90002L408.55 95.90002L408.55 208.2L408.55 208.2L311.75 208.2z" /></clipPath><clipPath id="6"><path clip-rule="evenodd" d="M311.75 95.90002L408.55 95.90002L408.55 95.90002L408.55 208.2L408.55 208.2L311.75 208.2z" /></clipPath><clipPath id="7"><path clip-rule="evenodd" d="M45 218.2L408.55 218.2L408.55 218.2L408.55 249.4L408.55 249.4L45 249.4z" /></clipPath><clipPath id="8"><path clip-rule="evenodd" d="M45 249.4L408.55 249.4L408.55 249.4L408.55 374.2L408.55 374.2L45 374.2z" /></clipPath><clipPath id="9"><path clip-rule="evenodd" d="M45 384.2L408.55 384.2L408.55 384.2L408.55 415.4L408.55 415.4L45 415.4z" /></clipPath><clipPath id="10"><path clip-rule="evenodd" d="M45 415.4L408.55 415.4L408.55 415.4L408.55 509L408.55 509L45 509z" /></clipPath><clipPath id="11"><path clip-rule="evenodd" d="M45 519L408.55 519L408.55 519L408.55 550.2L408.55 550.2L45 550.2z" /></clipPath><clipPath id="12"><path clip-rule="evenodd" d="M45 550.2L408.55 550.2L408.55 550.2L408.55 776.2L408.55 776.2L45 776.2z" /></clipPath><clipPath id="13"><path clip-rule="evenodd" d="M420.5 53.59998L550.55 53.59998L550.55 53.59998L550.55 84.79999L550.55 84.79999L420.5 84.79999z" /></clipPath><clipPath id="14"><path clip-rule="evenodd" d="M420.5 84.79999L550.55 84.79999L550.55 84.79999L550.55 350L550.55 350L420.5 350z" /></clipPath><clipPath id="15"><path clip-rule="evenodd" d="M420.5 84.79999L550.55 84.79999L550.55 84.79999L550.55 350L550.55 350L420.5 350z" /></clipPath><clipPath id="16"><path clip-rule="evenodd" d="M-1638.4 84.75L2183.85 84.75L2183.85 84.75L2183.85 100.35L2183.85 100.35L-1638.4 100.35z" /></clipPath><clipPath id="17"><path clip-rule="evenodd" d="M420.5 84.79999L550.55 84.79999L550.55 84.79999L550.55 350L550.55 350L420.5 350z" /></clipPath><clipPath id="18"><path clip-rule="evenodd" d="M420.5 353.5L550.55 353.5L550.55 353.5L550.55 369.1L550.55 369.1L420.5 369.1z" /></clipPath><clipPath id="19"><path clip-rule="evenodd" d="M420.5 372.6L550.55 372.6L550.55 372.6L550.55 403.8L550.55 403.8L420.5 403.8z" /></clipPath><clipPath id="20"><path clip-rule="evenodd" d="M420.5 403.8L550.55 403.8L550.55 403.8L550.55 513L550.55 513L420.5 513z" /></clipPath><clipPath id="21"><path clip-rule="evenodd" d="M420.5 523L550.55 523L550.55 523L550.55 554.2L550.55 554.2L420.5 554.2z" /></clipPath><clipPath id="22"><path clip-rule="evenodd" d="M420.5 554.2L550.55 554.2L550.55 554.2L550.55 569.85L550.55 569.85L420.5 569.85z" /></clipPath><clipPath id="23"><path clip-rule="evenodd" d="M420.5 49.09998L550.55 49.09998L550.55 49.09998L550.55 776.2L550.55 776.2L420.5 776.2z" /></clipPath><clipPath id="24"><path clip-rule="evenodd" d="M94.5 189.45L188.9 189.45L188.9 189.45L188.9 170.75L188.9 170.75L94.5 170.75z" /></clipPath><clipPath id="25"><path clip-rule="evenodd" d="M94.5 208.2L254.8 208.2L254.8 208.2L254.8 189.5L254.8 189.5L94.5 189.5z" /></clipPath><clipPath id="26"><path clip-rule="evenodd" d="M119.5 768.5999L252.6 768.5999L252.6 768.5999L252.6 737.4L252.6 737.4L119.5 737.4z" /></clipPath></defs><g transform="matrix(1.333333 0 0 1.333333 0 0)"><g><g clip-path="url(#1)"><g clip-path="url(#2)"><path transform="matrix(1 0 0 -1 0 841)" d="M0 841.9L595.3 841.9L595.3 841.9L595.3 0L595.3 0L0 0z" stroke="none" fill="#FFFFFF" fill-rule="evenodd" /></g><g clip-path="url(#3)"><path transform="matrix(1 0 0 -1 0 841)" d="M44.9 792L408.65 792L408.65 792L408.65 744.95L408.65 744.95L44.9 744.95z" stroke="none" fill="#FFFFFF" fill-rule="evenodd" /></g><g clip-path="url(#4)"><path transform="matrix(1 0 0 -1 0 841)" d="M44.9 745.2L311.9 745.2L311.9 745.2L311.9 632.65L311.9 632.65L44.9 632.65z" stroke="none" fill="#FFFFFF" fill-rule="evenodd" /><path transform="matrix(1 0 0 -1 0 841)" d="M94.4 655.55L188.85 655.55" stroke="#0000FF" stroke-width="0.48" fill="none" /><path transform="matrix(1 0 0 -1 0 841)" d="M94.4 636.85L254.75 636.85" stroke="#800080" stroke-width="0.48" fill="none" /></g><g clip-path="url(#5)"><path transform="matrix(1 0 0 -1 0 841)" d="M311.65 745.2L408.65 745.2L408.65 745.2L408.65 632.65L408.65 632.65L311.65 632.65z" stroke="none" fill="#FFFFFF" fill-rule="evenodd" /></g><g clip-path="url(#6)"><g transform="matrix(0.1976104 0 0 0.155614 320.76 97.26001)"><g transform="matrix(1 0 0 1 0 0)"><image x="0" y="0" xlink:href="img_01.png" width="385" height="684" /></g></g></g><g clip-path="url(#7)"><path transform="matrix(1 0 0 -1 0 841)" d="M44.9 622.9L408.65 622.9L408.65 622.9L408.65 591.45L408.65 591.45L44.9 591.45z" stroke="none" fill="#DCF0F1" fill-rule="evenodd" /></g><g clip-path="url(#8)"><path transform="matrix(1 0 0 -1 0 841)" d="M44.9 591.7L408.65 591.7L408.65 591.7L408.65 466.65L408.65 466.65L44.9 466.65z" stroke="none" fill="#FFFFFF" fill-rule="evenodd" /></g><g clip-path="url(#9)"><path transform="matrix(1 0 0 -1 0 841)" d="M44.9 456.9L408.65 456.9L408.65 456.9L408.65 425.45L408.65 425.45L44.9 425.45z" stroke="none" fill="#DCF0F1" fill-rule="evenodd" /></g><g clip-path="url(#10)"><path transform="matrix(1 0 0 -1 0 841)" d="M44.9 425.7L408.65 425.7L408.65 425.7L408.65 331.85L408.65 331.85L44.9 331.85z" stroke="none" fill="#FFFFFF" fill-rule="evenodd" /></g><g clip-path="url(#11)"><path transform="matrix(1 0 0 -1 0 841)" d="M44.9 322.1L408.65 322.1L408.65 322.1L408.65 290.65L408.65 290.65L44.9 290.65z" stroke="none" fill="#DCF0F1" fill-rule="evenodd" /></g><g clip-path="url(#12)"><path transform="matrix(1 0 0 -1 0 841)" d="M44.9 290.9L408.65 290.9L408.65 290.9L408.65 64.7L408.65 64.7L44.9 64.7z" stroke="none" fill="#FFFFFF" fill-rule="evenodd" /><path transform="matrix(1 0 0 -1 0 841)" d="M119.5 81.5001L252.6 81.5001" stroke="#800080" stroke-width="0.6" fill="none" /></g><g clip-path="url(#13)"><path transform="matrix(1 0 0 -1 0 841)" d="M420.4 787.5L550.65 787.5L550.65 787.5L550.65 756.05L550.65 756.05L420.4 756.05z" stroke="none" fill="#DCF0F1" fill-rule="evenodd" /></g><g clip-path="url(#14)"><path transform="matrix(1 0 0 -1 0 841)" d="M420.4 756.3L550.65 756.3L550.65 756.3L550.65 490.85L550.65 490.85L420.4 490.85z" stroke="none" fill="#FFFFFF" fill-rule="evenodd" /></g><g clip-path="url(#15)"><g clip-path="url(#16)"></g></g><g clip-path="url(#17)"></g><g clip-path="url(#18)"><path transform="matrix(1 0 0 -1 0 841)" d="M420.4 487.6L550.65 487.6L550.65 487.6L550.65 471.75L550.65 471.75L420.4 471.75z" stroke="none" fill="#FFFFFF" fill-rule="evenodd" /></g><g clip-path="url(#19)"><path transform="matrix(1 0 0 -1 0 841)" d="M420.4 468.5L550.65 468.5L550.65 468.5L550.65 437.05L550.65 437.05L420.4 437.05z" stroke="none" fill="#DCF0F1" fill-rule="evenodd" /></g><g clip-path="url(#20)"><path transform="matrix(1 0 0 -1 0 841)" d="M420.4 437.3L550.65 437.3L550.65 437.3L550.65 327.85L550.65 327.85L420.4 327.85z" stroke="none" fill="#FFFFFF" fill-rule="evenodd" /></g><g clip-path="url(#21)"><path transform="matrix(1 0 0 -1 0 841)" d="M420.4 318.1L550.65 318.1L550.65 318.1L550.65 286.65L550.65 286.65L420.4 286.65z" stroke="none" fill="#DCF0F1" fill-rule="evenodd" /></g><g clip-path="url(#22)"><path transform="matrix(1 0 0 -1 0 841)" d="M420.4 286.9L550.65 286.9L550.65 286.9L550.65 271.05L550.65 271.05L420.4 271.05z" stroke="none" fill="#FFFFFF" fill-rule="evenodd" /></g><g clip-path="url(#23)"></g><g clip-path="url(#24)"></g><g clip-path="url(#25)"></g><g clip-path="url(#26)"></g></g></g></g></svg>